<?xml version="1.0" encoding="utf-8"?>
<svg viewBox="0 0 744.0900268554688 1052.4000244140625" xmlns="http://www.w3.org/2000/svg">
  <defs/>
  <rect id="rect4311" style="fill: rgb(0, 150, 136);" height="320" width="320" y="143.79" x="225.71" transform="matrix(2.1112000942230225, 0, 0, 2.1112000942230225, -442.30999755859375, -267.87997436523443)"/>
  <path id="path4285" style="fill: rgb(255, 193, 7);" d=" M 339.2900085449219 548.9500122070312 C 343.40130853652954 565.9020118713379 358.8000087738037 575.1470127105713 367.91200828552246 584.4800109863281 C 349.19800758361816 588.2464108467102 330.36701011657715 599.3060111999512 322.022008895874 607.5080108642578 C 315.3425087928772 614.07231092453 313.9564085006714 621.5150108337402 313.4549083709717 626.74001121521 C 311.5692083835602 630.0070111751556 308.7397084236145 633.8960113525391 305.8662085533142 639.8100109100342 C 302.5050084590912 646.7276110649109 298.59320878982544 648.1472110748291 293.8282084465027 654.3220109939575 C 286.9060082435608 663.2929105758667 286.1705083847046 670.4680109024048 286.1705083847046 670.4680109024048 C 288.0270084142685 673.6946108341217 289.17730832099915 674.8430109024048 291.61870861053467 676.1669111251831 C 290.55030858516693 679.5226111412048 291.10093861818314 685.8067111968994 292.3515086174011 687.7329111099243 C 293.84610867500305 690.0343110561371 294.0659086704254 692.696711063385 300.3153085708618 694.6851110458374 C 305.1064085960388 699.6460108757019 306.80940866470337 701.9222111701965 314.1293087005615 705.3531112670898 C 322.92180824279785 709.1154112815857 329.6243085861206 712.7751111984253 337.82330894470215 705.0493612587452 C 348.17130851745605 695.2991609871387 352.7803087234497 695.4709616005421 356.6453094482422 698.4545612633228 C 358.95420932769775 700.236761122942 346.95420932769775 701.3207612335682 341.0243091583252 707.4739609062672 C 334.2752089500427 714.4768610298634 328.70330905914307 714.4880609810352 317.651309967041 709.0269608795643 C 322.34941005706787 713.7644610702991 326.4052095413208 716.8933606445789 332.35130977630615 719.3969607651234 C 332.6723097860813 722.2575607597828 332.9562597870827 724.6501608192921 335.6576097011566 728.6374612152576 C 336.37748968601227 724.831061154604 336.8340097665787 724.6213612854481 338.94710969924927 722.1213612854481 C 349.44910955429077 722.8215712606907 346.34470987319946 726.5020613968372 352.6781096458435 728.6615615189075 C 356.53530979156494 729.9767614901066 360.00230979919434 729.2413815557957 365.50410985946655 725.6387615501881 C 369.86460971832275 722.7834616005421 377.87210988998413 716.9739618599415 382.12210988998413 719.0079613029957 C 380.00530982017517 714.6591611206532 377.8888096809387 712.3125610649586 374.4330096244812 710.2605610191822 C 382.62510919570923 711.0160810649395 382.4085097312927 718.0419607460499 405.2110095024109 709.1821610033512 C 421.9320101737976 702.6852609217167 428.2390093803406 682.3931614458561 420.157009601593 661.54416051507 C 419.22131955623627 658.9158605635166 422.4915096759796 657.103360325098 424.0673096179962 659.4651605188847 C 429.84630942344666 676.941160351038 432.6815092563629 690.6961614191532 421.1097095012665 703.9681588709354 C 410.43970942497253 716.2061587870121 396.639710187912 718.2141591608524 387.85370898246765 720.8671590387821 C 381.25880885124207 734.8871594965458 394.5167090892792 751.5961591303349 403.1727092266083 764.699159771204 C 425.66670870780945 756.9965597689152 440.04870867729187 750.3031598627567 459.36170840263367 729.8471585810184 C 481.6837089061737 706.2041589319706 489.4997088909149 676.5851575434208 490.6827075481415 652.7971555292606 C 483.38950753211975 627.724155575037 473.01570773124695 606.4901563227177 456.7707087993622 592.9811536371708 C 433.5907084941864 577.341153293848 430.1207091808319 582.801153331995 414.13070940971375 571.3811532557011 C 399.6507098674774 560.5011531412601 365.71071124076843 556.5011531412601 339.2907130718231 548.9511529505253 C 339.2907130718231 548.9511529505253 339.2900085449219 548.9500122070312 339.2900085449219 548.9500122070312 Z M 324.3660087585449 655.0900115966797 C 317.22310876846313 644.232011795044 318.3497085571289 635.0450115203857 322.7976087331772 629.2720108032227 C 327.67800891399384 629.9827007651329 333.2186082601547 634.4209108352661 337.1416085958481 637.928111076355 C 331.5337084531784 644.317211151123 328.7568086385727 648.4961109161377 324.3656085729599 655.0901117324829 C 324.3656085729599 655.0901117324829 324.3660087585449 655.0900115966797 324.3660087585449 655.0900115966797 Z" transform="matrix(-2.6745998859405518, 0, 0, 2.602870464324951, 1410.100830078125, -1342.7469482421873)"/>
</svg>