<?xml version="1.0" encoding="utf-8"?>
<svg viewBox="0 0 703 191.25" xmlns="http://www.w3.org/2000/svg">
  <defs/>
  <g id="layer2" transform="translate(-43.278 92.181)">
    <path id="path2422" style="stroke: rgb(0, 0, 0); stroke-linecap: round; stroke-width: 8px; fill: rgb(255, 193, 7);" d="M 416.51 91.9106 C 414.48 91.9916 411.43 92.1926 407.94 92.3266 M 522.28 -77.7734 C 538.34 -77.7734 543.22 -79.9174 554.74 -79.5604 C 566.27 -79.2024 585.47 -78.6974 595.59 -77.6264 C 605.71 -76.5544 615.21 -82.0964 621.19 -82.1714 C 628.15 -82.2594 641.95 -80.7844 646.14 -78.6404 C 650.33 -76.4964 680.01 -68.5134 683.43 -71.3134 C 687.28 -74.4564 693.41 -79.3834 695.7 -78.3714 C 697.69 -77.4964 700.15 -68.8704 699.8 -64.2264 C 706.08 -61.0104 719.06 -49.1474 721.12 -47.6444 C 723.42 -45.9594 726.25 -39.7634 727.15 -37.9554 C 728.28 -35.6944 730.59 -31.1434 733.69 -28.4254 C 739.7 -23.1584 742.27 -19.0784 742.28 -14.7074 C 742.29 -12.4524 738.25 -6.1657 735.8 -3.9804 C 733.39 -1.8381 730.21 0.757396 724.97 2.5438 C 719.73 4.3302 713.76 7.2166 705.03 5.7002 C 695.74 4.0859 686.55 -5.1538 679.12 0.698096 C 673.92 4.8009 672.86 11.1841 662.37 2.2285 C 662.37 2.2285 652.68 10.5456 652.68 10.5456 C 652.68 10.5456 643.81 -0.626405 643.81 -0.626405 C 643.81 -0.626405 630.83 7.2028 630.83 7.2028 C 630.83 7.2028 618.51 -6.51921 618.51 -6.51921 C 602.85 -14.1504 607.94 3.5548 600.61 9.98579 C 593.28 16.4166 578.48 14.4036 576.39 16.1906 C 574.29 17.9766 586.86 26.1936 587.21 29.0526 C 587.56 31.9106 591.4 41.5566 587.91 45.4866 C 584.42 49.4166 555.79 63.7076 548.81 64.0656 C 541.83 64.4226 520.22 66.9476 517.22 59.5586 C 514.01 51.6796 516.28 42.3376 526.21 43.1126 C 535.86 43.8656 542.18 44.0576 547.76 43.7006 C 553.35 43.3436 554.05 39.0556 547.06 37.9846 C 540.08 36.9126 528.91 31.5536 525.07 30.4816 C 521.23 29.4096 519.49 29.4096 515.3 31.9106 C 511.11 34.4116 496.79 34.0536 491.21 30.4816 C 485.62 26.9086 453.5 20.4776 446.87 19.0486 C 440.24 17.6196 414.75 10.8306 410.56 8.3306 C 406.38 5.82919 397.3 1.89919 397.3 1.89919 C 392.04 8.55999 376.86 21.4112 375.46 26.0562 C 374.07 30.7002 369.18 51.0502 370.93 53.9092 C 372.67 56.7672 388.77 68.5382 390.48 68.9142 C 398.44 70.6682 413.46 69.5722 417.31 78.6732 C 419.27 83.3102 416.36 92.7802 409.03 93.4942 C 401.7 94.2092 381.15 97.2512 374.17 92.2492 C 367.19 87.2472 335.67 70.7012 331.13 68.9142 C 326.59 67.1282 322.57 64.8952 322.31 62.3942 C 322.05 59.8932 327.72 43.8152 325.63 39.6172 C 323.53 35.4192 322.76 17.6192 298.33 9.2232 C 273.89 0.826896 267.43 0.171297 263.07 -2.3298 C 258.7 -4.8306 251.2 -24.8968 248.41 -26.5048 C 245.61 -28.1128 238.63 -31.8638 177.19 -22.9318 C 115.75 -13.9998 53.3 -29.7358 47.32 -65.4478 C 46.543 -70.1038 56.353 -73.0008 64.038 -60.6398 C 72.557 -46.9368 110.9 -33.8098 169.678 -40.9748 C 231.308 -48.4358 245.088 -53.7918 260.448 -55.5788 C 275.808 -57.3648 301.988 -72.9508 316.308 -77.7738 C 330.618 -82.5968 400.788 -88.3138 425.748 -87.7778 C 450.708 -87.2418 484.228 -76.8808 522.278 -77.7738 C 522.278 -77.7738 522.28 -77.7734 522.28 -77.7734 Z M 453.5 21.1916 C 454.55 31.5536 447.92 41.1996 446.17 51.9176 C 444.43 62.6366 444.74 71.0276 439.87 71.0896 C 433.74 71.1666 428.84 79.2726 429.26 86.8006 C 429.6 92.7376 437.69 94.4266 444.39 94.4306 C 460 94.4376 476.77 75.3506 485.5 64.2746 C 494.22 53.1986 508.31 34.0536 508.31 34.0536"/>
    <g id="g2439">
      <path id="path3201" style="fill: rgb(255, 193, 7);" d=" M 713.3599853515625 -36.569000244140625 C 713.4620057221443 -35.136064964523804 710.9132684617069 -34.174905389781685 708.7722582827668 -34.8389130097251 C 707.6941610163099 -35.17327143875501 707.0386134137303 -35.84745131216444 707.089985370636 -36.569000244140625 C 706.9879650000541 -38.001935523757446 709.5367022604916 -38.963095098499565 711.6777124394317 -38.29908747855615 C 712.7558097058886 -37.96472904952624 713.4113573084682 -37.29054917611681 713.3599853515625 -36.569000244140625 Z" transform="matrix(.81701 .57663 -.57663 .81701 110.42 -414.49)"/>
    </g>
    <g id="g2434">
      <path id="path3192" style="stroke: rgb(0, 0, 0); stroke-linecap: round; stroke-width: 4px; fill: rgb(255, 193, 7);" d=" M 709.2000122070312 -39.439998626708984 C 713.3500123023987 -39.428998625837266 714.7000122070312 -38.69199860095978 715.8800120353699 -37.08099865913391 C 717.030012011528 -35.50199866294861 716.8600120544434 -33.27199864387512 717.2300120592117 -31.66399884223938"/>
      <path id="path3194" style="stroke: rgb(0, 0, 0); stroke-linecap: round; stroke-width: 4px; fill: rgb(255, 193, 7);" d=" M 739.0800170898438 -9.639699935913086 C 730.150016784668 -6.2342000007629395 726.8800172805786 -9.541599929332733 724.650016784668 -12.25"/>
      <path id="path2829" style="stroke-linejoin: round; stroke: rgb(0, 0, 0); stroke-linecap: round; stroke-width: 4px; fill: rgb(255, 193, 7);" d=" M 659.5599975585938 -18.954999923706055 C 659.5599975585938 -18.954999923706055 654.2999973297119 -21.667999982833862 654.2999973297119 -21.667999982833862 C 654.2999973297119 -21.667999982833862 659.0399971008301 -27.04200005531311 659.0399971008301 -27.04200005531311 C 659.0399971008301 -27.04200005531311 653.749997138977 -29.694000005722046 653.749997138977 -29.694000005722046 C 653.749997138977 -29.694000005722046 657.6399970054626 -34.430999994277954 657.6399970054626 -34.430999994277954 C 657.6399970054626 -34.430999994277954 652.5599970817566 -36.74000000953674 652.5599970817566 -36.74000000953674 C 652.5599970817566 -36.74000000953674 658.0599970817566 -41.46300005912781 658.0599970817566 -41.46300005912781 C 658.0599970817566 -41.46300005912781 654.1199970245361 -44.746999979019165 654.1199970245361 -44.746999979019165 C 654.1199970245361 -44.746999979019165 658.1799969673157 -47.40300011634827 658.1799969673157 -47.40300011634827 C 658.1799969673157 -47.40300011634827 659.229996919632 -52.25200009346008 659.229996919632 -52.25200009346008 C 659.229996919632 -52.25200009346008 664.269996881485 -58.91100001335144 664.269996881485 -58.91100001335144"/>
    </g>
  </g>
</svg>